<?xml version="1.0" encoding="utf-8"?>
<!-- Generator: Adobe Illustrator 16.0.0, SVG Export Plug-In . SVG Version: 6.00 Build 0)  -->
<!DOCTYPE svg PUBLIC "-//W3C//DTD SVG 1.1//EN" "http://www.w3.org/Graphics/SVG/1.1/DTD/svg11.dtd">
<svg version="1.1" id="Layer_1" xmlns="http://www.w3.org/2000/svg" xmlns:xlink="http://www.w3.org/1999/xlink" x="0px" y="0px"
	 width="595.28px" height="841.89px" viewBox="0 0 595.28 841.89" enable-background="new 0 0 595.28 841.89" xml:space="preserve">
<path fill="#E05811" d="M295.581,413.745c0.193,0.193,0.447,0.29,0.7,0.29c0.254,0,0.507-0.097,0.701-0.29
	c0.386-0.386,0.386-1.014,0-1.4c-1.066-1.066-2.483-1.653-3.991-1.653c-1.507,0-2.924,0.587-3.989,1.652
	c-0.387,0.387-0.387,1.014,0,1.401c0.387,0.386,1.014,0.386,1.4,0c0.691-0.692,1.611-1.073,2.589-1.073
	C293.971,412.672,294.891,413.053,295.581,413.745"/>
<path fill="#E05811" d="M299.585,423.301c3.636-3.637,3.636-9.553,0-13.188c-1.761-1.76-4.103-2.73-6.593-2.73
	c-2.491,0-4.833,0.971-6.594,2.73c-1.761,1.762-2.73,4.104-2.73,6.594c0,2.491,0.97,4.832,2.73,6.595
	c1.761,1.761,4.103,2.73,6.594,2.73C295.482,426.031,297.824,425.062,299.585,423.301 M285.648,416.706
	c0-1.961,0.764-3.806,2.15-5.193s3.231-2.151,5.193-2.151s3.806,0.764,5.192,2.151c2.863,2.863,2.863,7.523,0,10.386
	c-1.387,1.387-3.23,2.151-5.192,2.151s-3.807-0.765-5.193-2.151C286.412,420.512,285.648,418.668,285.648,416.706"/>
<path fill="#E05811" d="M314.101,433.016v-24.309c0-0.547-0.443-0.991-0.989-0.991h-11.055c-0.062-0.065-0.125-0.13-0.188-0.194
	c-2.427-2.426-5.652-3.762-9.082-3.762c-3.432,0-6.656,1.336-9.082,3.762c-2.427,2.426-3.763,5.651-3.763,9.082
	c0,3.43,1.336,6.656,3.763,9.082c0.063,0.064,0.129,0.127,0.193,0.189v11.053c0,0.547,0.444,0.991,0.991,0.991h24.31
	c0.64,0.532,1.433,0.798,2.226,0.798c0.895,0,1.789-0.338,2.463-1.012C315.157,436.434,315.234,434.38,314.101,433.016
	 M312.486,436.304c-0.573,0.573-1.516,0.583-2.1,0.022c-0.008-0.007-0.015-0.014-0.021-0.021l-9.638-9.608
	c0.397-0.312,0.777-0.649,1.141-1.012c0.36-0.361,0.694-0.74,1.005-1.132l9.618,9.631c0.006,0.006,0.012,0.013,0.018,0.019
	C313.068,434.789,313.059,435.73,312.486,436.304 M312.12,409.696v21.314l-8.125-8.136c2.29-4.098,2.163-9.191-0.38-13.179H312.12z
	 M281.922,416.604c0-2.902,1.131-5.63,3.182-7.682c2.053-2.052,4.78-3.183,7.683-3.183c2.9,0,5.629,1.13,7.681,3.183
	c4.235,4.235,4.235,11.127,0,15.363c-2.052,2.052-4.78,3.182-7.681,3.182c-2.902,0-5.63-1.13-7.683-3.182
	C283.053,422.232,281.922,419.505,281.922,416.604 M285.879,435.938v-8.502c2.044,1.309,4.421,2.011,6.907,2.011
	c2.229,0,4.371-0.564,6.264-1.625l8.14,8.116H285.879z"/>
</svg>
